<?xml version="1.0" encoding="UTF-8" standalone="no"?>

<svg xmlns="http://www.w3.org/2000/svg" version="1.1" height="50" width="50">
  <title>Mistress</title>
  <description>
    Western white-side Mistress
  </description>

  <g>
    <path stroke-linejoin="miter" d="m36.286,18.66c0.24913-0.97106,0.52092-1.9363,0.81505-2.8947,1.2523-4.0804,2.911-8.0359,4.9436-11.789" stroke="#000" stroke-linecap="butt" stroke-miterlimit="4" stroke-dasharray="none" stroke-width="1.95730591" fill="none"/>
    <path stroke-linejoin="round" d="M44.854,3.5155a2.0829,2.0829,0,0,1,-4.067,-0.9001,2.0829,2.0829,0,1,1,4.067,0.9001z" fill-rule="evenodd" stroke="#000" stroke-linecap="round" stroke-miterlimit="4" stroke-dasharray="none" stroke-width="1.95730591" fill="#FFF"/>
    <path stroke-linejoin="miter" d="m40.288,21.628c0.31855-0.70252,0.65348-1.3976,1.0044-2.0845,1.4942-2.9245,3.2797-5.7001,5.3214-8.2724" stroke="#000" stroke-linecap="butt" stroke-miterlimit="4" stroke-dasharray="none" stroke-width="1.95730591" fill="none"/>
    <path stroke-linejoin="round" d="M49.289,11.515a2.0829,2.0829,0,0,1,-3.849,-1.5924,2.0829,2.0829,0,1,1,3.849,1.5924z" fill-rule="evenodd" stroke="#000" stroke-linecap="round" stroke-miterlimit="4" stroke-dasharray="none" stroke-width="1.95730591" fill="#FFF"/>
    <path stroke-linejoin="round" d="m330.08,33.051a38.771,27.542,0,1,1,-77.542,0,38.771,27.542,0,1,1,77.542,0z" transform="matrix(0.47561379,0,0,0.39127189,-113.55275,14.786315)" stroke="#000" stroke-miterlimit="4" stroke-dasharray="none" stroke-width="4.53724432" fill="#FFF"/>
    <path stroke-linejoin="round" d="m7.3838,31.731c0,2.6098,1.9574,2.6098,3.2623,5.2196,1.3049,1.9574,1.3049,1.3049,0.65245,4.5672-1.9574,1.3049-1.9574,3.2623-1.9574,3.2623-1.9574,1.9574,0.65245,3.2623,0.65245,3.2623,8.4819,1.3049,21.531,1.3049,30.013,0,0,0,1.9574-1.3049,0-3.2623,0,0,0.65245-1.9574-1.3049-3.2623-0.65245-3.2623-0.65245-2.6098,0.65245-4.5672,1.3049-2.6098,3.2623-2.6098,3.2623-5.2196-11.092-1.9574-24.141-1.9574-35.232,0z" fill-rule="evenodd" stroke="#000" stroke-linecap="butt" stroke-miterlimit="4" stroke-dasharray="none" stroke-width="1.95735812" fill="#FFF"/>
    <path stroke-linejoin="round" d="m10.646,36.951c4.5672-1.3049,24.141-1.3049,28.708,0" stroke="#000" stroke-linecap="round" stroke-miterlimit="4" stroke-dasharray="none" stroke-width="1.95735812" fill="none"/>
    <path stroke-linejoin="round" d="m11.298,41.518c7.8294-1.3049,19.574-1.3049,27.403,0" stroke="#000" stroke-linecap="round" stroke-miterlimit="4" stroke-dasharray="none" stroke-width="1.95735812" fill="none"/>
    <path stroke-linejoin="round" d="m27.61,38.363a2.6098,2.6098,0,0,1,-5.2196,0,2.6098,2.6098,0,1,1,5.2196,0z" fill-rule="evenodd" stroke="#000" stroke-linecap="round" stroke-miterlimit="4" stroke-dasharray="none" stroke-width="1.95730591" fill="#FFF"/>
  </g>
</svg>
